<svg id="Layer_1" data-name="Layer 1" xmlns="http://www.w3.org/2000/svg" viewBox="0 0 200 200"><title>Scotiabank_Favicon</title><circle cx="100" cy="100" r="100"/><path d="M7232.62,7199.54c.38,18.89-16.69,33.16-31,33.16h-35.28l-22.13,22h57c18.21,0,35.67-16.38,35.67-35.93,0-5.74-.69-13.22-4.32-18.89v-.38m-6.06,13.92a29.26,29.26,0,0,0,3.55-12.46h-16a39,39,0,0,1-2.11,12.46Zm-15.62,2.47a37.43,37.43,0,0,1-10.33,13.92c8.13,0,17.42-3.55,24.22-13.92Zm-1.82-2.47a50.16,50.16,0,0,0,2.47-12.46h-24.22a50.29,50.29,0,0,0,2.47,12.46Zm-22,0a40.22,40.22,0,0,1-2.2-12.46h-16a32.47,32.47,0,0,0,3.54,12.46Zm12.45,13.88a39.52,39.52,0,0,0,8.52-11.41h-17.12A38.53,38.53,0,0,0,7199.54,7227.34Zm-25.68-11.41c7.09,10.37,16.38,13.92,24.64,13.92-4.32-3.28-8.91-9.29-10.38-13.92ZM7212,7186a35.1,35.1,0,0,1,2.11,12.45h16a28.39,28.39,0,0,0-3.55-12.45Zm12.84-2.89c-6.79-9.95-16.08-13.88-24.22-13.88a35.82,35.82,0,0,1,10.33,13.88Zm-35,2.89a48.27,48.27,0,0,0-2.47,12.45h24.22a48.27,48.27,0,0,0-2.47-12.45Zm-17.43,0a31.3,31.3,0,0,0-3.54,12.45h16a36,36,0,0,1,2.2-12.45Zm27.11-14a37.18,37.18,0,0,0-8.6,11.1h17.12A38.24,38.24,0,0,0,7199.54,7172Zm-11.41,11.1c1.47-4.7,6.05-10.72,10.38-13.88-8.26,0-17.55,3.93-24.64,13.88Zm-21.75,16c-3.54-5.63-4.32-13.11-4.32-18.85,0-19.55,17.47-36.05,35.66-36.05h57l-22.14,22.32h-35.28C7183.15,7166.57,7166,7181,7166.38,7199.15Z" transform="translate(-7099.5 -7099.5)" fill="#ee3224"/></svg>